<mxfile host="app.diagrams.net" modified="2024-01-11T17:30:38.201Z" agent="Mozilla/5.0 (Windows NT 10.0; Win64; x64; rv:121.0) Gecko/20100101 Firefox/121.0" etag="iWFGGKUb_U2HEuGjfTQt" version="22.1.18" type="device">
  <diagram name="Seite-1" id="MjS32cdErT_nOe3Wmfs6">
    <mxGraphModel dx="276" dy="145" grid="1" gridSize="10" guides="1" tooltips="1" connect="1" arrows="1" fold="1" page="1" pageScale="1" pageWidth="827" pageHeight="1169" math="0" shadow="0">
      <root>
        <mxCell id="0" />
        <mxCell id="1" parent="0" />
        <mxCell id="pdPbOxNDeSaX1vosYQbB-1" value="" style="endArrow=none;html=1;rounded=0;" edge="1" parent="1">
          <mxGeometry width="50" height="50" relative="1" as="geometry">
            <mxPoint x="80" y="360" as="sourcePoint" />
            <mxPoint x="80" y="320" as="targetPoint" />
          </mxGeometry>
        </mxCell>
        <mxCell id="pdPbOxNDeSaX1vosYQbB-2" value="" style="endArrow=none;html=1;rounded=0;" edge="1" parent="1">
          <mxGeometry width="50" height="50" relative="1" as="geometry">
            <mxPoint x="110" y="320" as="sourcePoint" />
            <mxPoint x="80" y="320" as="targetPoint" />
          </mxGeometry>
        </mxCell>
        <mxCell id="pdPbOxNDeSaX1vosYQbB-3" value="" style="endArrow=none;html=1;rounded=0;" edge="1" parent="1">
          <mxGeometry width="50" height="50" relative="1" as="geometry">
            <mxPoint x="120" y="360" as="sourcePoint" />
            <mxPoint x="110" y="360" as="targetPoint" />
          </mxGeometry>
        </mxCell>
        <mxCell id="pdPbOxNDeSaX1vosYQbB-4" value="" style="endArrow=none;html=1;rounded=0;" edge="1" parent="1">
          <mxGeometry width="50" height="50" relative="1" as="geometry">
            <mxPoint x="110" y="360" as="sourcePoint" />
            <mxPoint x="110" y="320" as="targetPoint" />
          </mxGeometry>
        </mxCell>
        <mxCell id="pdPbOxNDeSaX1vosYQbB-9" value="" style="endArrow=none;html=1;rounded=0;" edge="1" parent="1">
          <mxGeometry width="50" height="50" relative="1" as="geometry">
            <mxPoint x="80" y="410" as="sourcePoint" />
            <mxPoint x="80" y="370" as="targetPoint" />
          </mxGeometry>
        </mxCell>
        <mxCell id="pdPbOxNDeSaX1vosYQbB-10" value="" style="endArrow=none;html=1;rounded=0;" edge="1" parent="1">
          <mxGeometry width="50" height="50" relative="1" as="geometry">
            <mxPoint x="95" y="370" as="sourcePoint" />
            <mxPoint x="80" y="370" as="targetPoint" />
          </mxGeometry>
        </mxCell>
        <mxCell id="pdPbOxNDeSaX1vosYQbB-11" value="" style="endArrow=none;html=1;rounded=0;" edge="1" parent="1">
          <mxGeometry width="50" height="50" relative="1" as="geometry">
            <mxPoint x="120" y="410" as="sourcePoint" />
            <mxPoint x="95" y="410" as="targetPoint" />
          </mxGeometry>
        </mxCell>
        <mxCell id="pdPbOxNDeSaX1vosYQbB-12" value="" style="endArrow=none;html=1;rounded=0;" edge="1" parent="1">
          <mxGeometry width="50" height="50" relative="1" as="geometry">
            <mxPoint x="95" y="410" as="sourcePoint" />
            <mxPoint x="95" y="370" as="targetPoint" />
          </mxGeometry>
        </mxCell>
        <mxCell id="pdPbOxNDeSaX1vosYQbB-19" value="75%" style="text;html=1;align=center;verticalAlign=middle;resizable=0;points=[];autosize=1;strokeColor=none;fillColor=none;" vertex="1" parent="1">
          <mxGeometry x="70" y="314" width="50" height="30" as="geometry" />
        </mxCell>
        <mxCell id="pdPbOxNDeSaX1vosYQbB-18" value="" style="endArrow=classic;startArrow=classic;html=1;rounded=0;startSize=2;endSize=2;" edge="1" parent="1">
          <mxGeometry width="50" height="50" relative="1" as="geometry">
            <mxPoint x="80" y="340" as="sourcePoint" />
            <mxPoint x="110" y="340" as="targetPoint" />
          </mxGeometry>
        </mxCell>
        <mxCell id="pdPbOxNDeSaX1vosYQbB-20" value="37,5%" style="text;html=1;align=center;verticalAlign=middle;resizable=0;points=[];autosize=1;strokeColor=none;fillColor=none;" vertex="1" parent="1">
          <mxGeometry x="90" y="370" width="50" height="30" as="geometry" />
        </mxCell>
        <mxCell id="pdPbOxNDeSaX1vosYQbB-21" value="" style="endArrow=classic;startArrow=classic;html=1;rounded=0;startSize=2;endSize=2;" edge="1" parent="1">
          <mxGeometry width="50" height="50" relative="1" as="geometry">
            <mxPoint x="80" y="390" as="sourcePoint" />
            <mxPoint x="95" y="390" as="targetPoint" />
          </mxGeometry>
        </mxCell>
        <mxCell id="pdPbOxNDeSaX1vosYQbB-41" value="" style="endArrow=none;html=1;rounded=0;" edge="1" parent="1">
          <mxGeometry width="50" height="50" relative="1" as="geometry">
            <mxPoint x="84" y="532" as="sourcePoint" />
            <mxPoint x="94" y="532" as="targetPoint" />
          </mxGeometry>
        </mxCell>
        <mxCell id="pdPbOxNDeSaX1vosYQbB-43" value="" style="endArrow=none;html=1;rounded=0;" edge="1" parent="1">
          <mxGeometry width="50" height="50" relative="1" as="geometry">
            <mxPoint x="94" y="512" as="sourcePoint" />
            <mxPoint x="104" y="512" as="targetPoint" />
          </mxGeometry>
        </mxCell>
        <mxCell id="pdPbOxNDeSaX1vosYQbB-46" value="" style="endArrow=none;html=1;rounded=0;" edge="1" parent="1">
          <mxGeometry width="50" height="50" relative="1" as="geometry">
            <mxPoint x="94" y="532" as="sourcePoint" />
            <mxPoint x="94" y="512" as="targetPoint" />
          </mxGeometry>
        </mxCell>
        <mxCell id="pdPbOxNDeSaX1vosYQbB-47" value="" style="endArrow=none;html=1;rounded=0;" edge="1" parent="1">
          <mxGeometry width="50" height="50" relative="1" as="geometry">
            <mxPoint x="104" y="532" as="sourcePoint" />
            <mxPoint x="104" y="512" as="targetPoint" />
          </mxGeometry>
        </mxCell>
        <mxCell id="pdPbOxNDeSaX1vosYQbB-48" value="" style="endArrow=none;html=1;rounded=0;" edge="1" parent="1">
          <mxGeometry width="50" height="50" relative="1" as="geometry">
            <mxPoint x="103.91" y="532" as="sourcePoint" />
            <mxPoint x="113.91" y="532" as="targetPoint" />
          </mxGeometry>
        </mxCell>
        <mxCell id="pdPbOxNDeSaX1vosYQbB-49" value="" style="endArrow=none;html=1;rounded=0;" edge="1" parent="1">
          <mxGeometry width="50" height="50" relative="1" as="geometry">
            <mxPoint x="113.91" y="512" as="sourcePoint" />
            <mxPoint x="123.91" y="512" as="targetPoint" />
          </mxGeometry>
        </mxCell>
        <mxCell id="pdPbOxNDeSaX1vosYQbB-50" value="" style="endArrow=none;html=1;rounded=0;" edge="1" parent="1">
          <mxGeometry width="50" height="50" relative="1" as="geometry">
            <mxPoint x="113.91" y="532" as="sourcePoint" />
            <mxPoint x="113.91" y="512" as="targetPoint" />
          </mxGeometry>
        </mxCell>
        <mxCell id="pdPbOxNDeSaX1vosYQbB-51" value="" style="endArrow=none;html=1;rounded=0;" edge="1" parent="1">
          <mxGeometry width="50" height="50" relative="1" as="geometry">
            <mxPoint x="123.91" y="532" as="sourcePoint" />
            <mxPoint x="123.91" y="512" as="targetPoint" />
          </mxGeometry>
        </mxCell>
        <mxCell id="pdPbOxNDeSaX1vosYQbB-52" value="" style="endArrow=none;html=1;rounded=0;" edge="1" parent="1">
          <mxGeometry width="50" height="50" relative="1" as="geometry">
            <mxPoint x="123.91" y="532" as="sourcePoint" />
            <mxPoint x="133.91" y="532" as="targetPoint" />
          </mxGeometry>
        </mxCell>
        <mxCell id="pdPbOxNDeSaX1vosYQbB-53" value="" style="endArrow=none;html=1;rounded=0;" edge="1" parent="1">
          <mxGeometry width="50" height="50" relative="1" as="geometry">
            <mxPoint x="133.91" y="512" as="sourcePoint" />
            <mxPoint x="143.91" y="512" as="targetPoint" />
          </mxGeometry>
        </mxCell>
        <mxCell id="pdPbOxNDeSaX1vosYQbB-54" value="" style="endArrow=none;html=1;rounded=0;" edge="1" parent="1">
          <mxGeometry width="50" height="50" relative="1" as="geometry">
            <mxPoint x="133.91" y="532" as="sourcePoint" />
            <mxPoint x="133.91" y="512" as="targetPoint" />
          </mxGeometry>
        </mxCell>
        <mxCell id="pdPbOxNDeSaX1vosYQbB-55" value="" style="endArrow=none;html=1;rounded=0;" edge="1" parent="1">
          <mxGeometry width="50" height="50" relative="1" as="geometry">
            <mxPoint x="143.91" y="532" as="sourcePoint" />
            <mxPoint x="143.91" y="512" as="targetPoint" />
          </mxGeometry>
        </mxCell>
        <mxCell id="pdPbOxNDeSaX1vosYQbB-56" value="" style="endArrow=none;html=1;rounded=0;" edge="1" parent="1">
          <mxGeometry width="50" height="50" relative="1" as="geometry">
            <mxPoint x="144" y="532" as="sourcePoint" />
            <mxPoint x="154" y="532" as="targetPoint" />
          </mxGeometry>
        </mxCell>
        <mxCell id="pdPbOxNDeSaX1vosYQbB-57" value="" style="endArrow=none;html=1;rounded=0;" edge="1" parent="1">
          <mxGeometry width="50" height="50" relative="1" as="geometry">
            <mxPoint x="154" y="512" as="sourcePoint" />
            <mxPoint x="164" y="512" as="targetPoint" />
          </mxGeometry>
        </mxCell>
        <mxCell id="pdPbOxNDeSaX1vosYQbB-58" value="" style="endArrow=none;html=1;rounded=0;" edge="1" parent="1">
          <mxGeometry width="50" height="50" relative="1" as="geometry">
            <mxPoint x="154" y="532" as="sourcePoint" />
            <mxPoint x="154" y="512" as="targetPoint" />
          </mxGeometry>
        </mxCell>
        <mxCell id="pdPbOxNDeSaX1vosYQbB-59" value="" style="endArrow=none;html=1;rounded=0;" edge="1" parent="1">
          <mxGeometry width="50" height="50" relative="1" as="geometry">
            <mxPoint x="164" y="532" as="sourcePoint" />
            <mxPoint x="164" y="512" as="targetPoint" />
          </mxGeometry>
        </mxCell>
        <mxCell id="pdPbOxNDeSaX1vosYQbB-60" value="" style="endArrow=none;html=1;rounded=0;" edge="1" parent="1">
          <mxGeometry width="50" height="50" relative="1" as="geometry">
            <mxPoint x="164" y="532" as="sourcePoint" />
            <mxPoint x="174" y="532" as="targetPoint" />
          </mxGeometry>
        </mxCell>
        <mxCell id="pdPbOxNDeSaX1vosYQbB-61" value="" style="endArrow=none;html=1;rounded=0;" edge="1" parent="1">
          <mxGeometry width="50" height="50" relative="1" as="geometry">
            <mxPoint x="174" y="512" as="sourcePoint" />
            <mxPoint x="184" y="512" as="targetPoint" />
          </mxGeometry>
        </mxCell>
        <mxCell id="pdPbOxNDeSaX1vosYQbB-62" value="" style="endArrow=none;html=1;rounded=0;" edge="1" parent="1">
          <mxGeometry width="50" height="50" relative="1" as="geometry">
            <mxPoint x="174" y="532" as="sourcePoint" />
            <mxPoint x="174" y="512" as="targetPoint" />
          </mxGeometry>
        </mxCell>
        <mxCell id="pdPbOxNDeSaX1vosYQbB-63" value="" style="endArrow=none;html=1;rounded=0;" edge="1" parent="1">
          <mxGeometry width="50" height="50" relative="1" as="geometry">
            <mxPoint x="184" y="532" as="sourcePoint" />
            <mxPoint x="184" y="512" as="targetPoint" />
          </mxGeometry>
        </mxCell>
        <mxCell id="pdPbOxNDeSaX1vosYQbB-64" value="" style="endArrow=none;html=1;rounded=0;" edge="1" parent="1">
          <mxGeometry width="50" height="50" relative="1" as="geometry">
            <mxPoint x="184" y="532" as="sourcePoint" />
            <mxPoint x="194" y="532" as="targetPoint" />
          </mxGeometry>
        </mxCell>
        <mxCell id="pdPbOxNDeSaX1vosYQbB-65" value="" style="endArrow=none;html=1;rounded=0;" edge="1" parent="1">
          <mxGeometry width="50" height="50" relative="1" as="geometry">
            <mxPoint x="194" y="512" as="sourcePoint" />
            <mxPoint x="204" y="512" as="targetPoint" />
          </mxGeometry>
        </mxCell>
        <mxCell id="pdPbOxNDeSaX1vosYQbB-66" value="" style="endArrow=none;html=1;rounded=0;" edge="1" parent="1">
          <mxGeometry width="50" height="50" relative="1" as="geometry">
            <mxPoint x="194" y="532" as="sourcePoint" />
            <mxPoint x="194" y="512" as="targetPoint" />
          </mxGeometry>
        </mxCell>
        <mxCell id="pdPbOxNDeSaX1vosYQbB-67" value="" style="endArrow=none;html=1;rounded=0;" edge="1" parent="1">
          <mxGeometry width="50" height="50" relative="1" as="geometry">
            <mxPoint x="204" y="532" as="sourcePoint" />
            <mxPoint x="204" y="512" as="targetPoint" />
          </mxGeometry>
        </mxCell>
        <mxCell id="pdPbOxNDeSaX1vosYQbB-68" value="" style="endArrow=none;html=1;rounded=0;" edge="1" parent="1">
          <mxGeometry width="50" height="50" relative="1" as="geometry">
            <mxPoint x="204" y="532" as="sourcePoint" />
            <mxPoint x="214" y="532" as="targetPoint" />
          </mxGeometry>
        </mxCell>
        <mxCell id="pdPbOxNDeSaX1vosYQbB-69" value="" style="endArrow=none;html=1;rounded=0;" edge="1" parent="1">
          <mxGeometry width="50" height="50" relative="1" as="geometry">
            <mxPoint x="214" y="512" as="sourcePoint" />
            <mxPoint x="224" y="512" as="targetPoint" />
          </mxGeometry>
        </mxCell>
        <mxCell id="pdPbOxNDeSaX1vosYQbB-70" value="" style="endArrow=none;html=1;rounded=0;" edge="1" parent="1">
          <mxGeometry width="50" height="50" relative="1" as="geometry">
            <mxPoint x="214" y="532" as="sourcePoint" />
            <mxPoint x="214" y="512" as="targetPoint" />
          </mxGeometry>
        </mxCell>
        <mxCell id="pdPbOxNDeSaX1vosYQbB-71" value="" style="endArrow=none;html=1;rounded=0;" edge="1" parent="1">
          <mxGeometry width="50" height="50" relative="1" as="geometry">
            <mxPoint x="224" y="532" as="sourcePoint" />
            <mxPoint x="224" y="512" as="targetPoint" />
          </mxGeometry>
        </mxCell>
        <mxCell id="pdPbOxNDeSaX1vosYQbB-72" value="" style="endArrow=none;html=1;rounded=0;" edge="1" parent="1">
          <mxGeometry width="50" height="50" relative="1" as="geometry">
            <mxPoint x="224" y="532" as="sourcePoint" />
            <mxPoint x="234" y="532" as="targetPoint" />
          </mxGeometry>
        </mxCell>
        <mxCell id="pdPbOxNDeSaX1vosYQbB-73" value="" style="endArrow=none;html=1;rounded=0;" edge="1" parent="1">
          <mxGeometry width="50" height="50" relative="1" as="geometry">
            <mxPoint x="234" y="512" as="sourcePoint" />
            <mxPoint x="244" y="512" as="targetPoint" />
          </mxGeometry>
        </mxCell>
        <mxCell id="pdPbOxNDeSaX1vosYQbB-74" value="" style="endArrow=none;html=1;rounded=0;" edge="1" parent="1">
          <mxGeometry width="50" height="50" relative="1" as="geometry">
            <mxPoint x="234" y="532" as="sourcePoint" />
            <mxPoint x="234" y="512" as="targetPoint" />
          </mxGeometry>
        </mxCell>
        <mxCell id="pdPbOxNDeSaX1vosYQbB-75" value="" style="endArrow=none;html=1;rounded=0;" edge="1" parent="1">
          <mxGeometry width="50" height="50" relative="1" as="geometry">
            <mxPoint x="244" y="532" as="sourcePoint" />
            <mxPoint x="244" y="512" as="targetPoint" />
          </mxGeometry>
        </mxCell>
        <mxCell id="pdPbOxNDeSaX1vosYQbB-76" value="" style="endArrow=none;html=1;rounded=0;" edge="1" parent="1">
          <mxGeometry width="50" height="50" relative="1" as="geometry">
            <mxPoint x="244" y="532" as="sourcePoint" />
            <mxPoint x="254" y="532" as="targetPoint" />
          </mxGeometry>
        </mxCell>
        <mxCell id="pdPbOxNDeSaX1vosYQbB-77" value="" style="endArrow=none;html=1;rounded=0;" edge="1" parent="1">
          <mxGeometry width="50" height="50" relative="1" as="geometry">
            <mxPoint x="254" y="512" as="sourcePoint" />
            <mxPoint x="264" y="512" as="targetPoint" />
          </mxGeometry>
        </mxCell>
        <mxCell id="pdPbOxNDeSaX1vosYQbB-78" value="" style="endArrow=none;html=1;rounded=0;" edge="1" parent="1">
          <mxGeometry width="50" height="50" relative="1" as="geometry">
            <mxPoint x="254" y="532" as="sourcePoint" />
            <mxPoint x="254" y="512" as="targetPoint" />
          </mxGeometry>
        </mxCell>
        <mxCell id="pdPbOxNDeSaX1vosYQbB-79" value="" style="endArrow=none;html=1;rounded=0;" edge="1" parent="1">
          <mxGeometry width="50" height="50" relative="1" as="geometry">
            <mxPoint x="264" y="532" as="sourcePoint" />
            <mxPoint x="264" y="512" as="targetPoint" />
          </mxGeometry>
        </mxCell>
        <mxCell id="pdPbOxNDeSaX1vosYQbB-80" value="" style="endArrow=none;html=1;rounded=0;" edge="1" parent="1">
          <mxGeometry width="50" height="50" relative="1" as="geometry">
            <mxPoint x="264" y="532" as="sourcePoint" />
            <mxPoint x="274" y="532" as="targetPoint" />
          </mxGeometry>
        </mxCell>
        <mxCell id="pdPbOxNDeSaX1vosYQbB-81" value="" style="endArrow=none;html=1;rounded=0;" edge="1" parent="1">
          <mxGeometry width="50" height="50" relative="1" as="geometry">
            <mxPoint x="274" y="512" as="sourcePoint" />
            <mxPoint x="284" y="512" as="targetPoint" />
          </mxGeometry>
        </mxCell>
        <mxCell id="pdPbOxNDeSaX1vosYQbB-82" value="" style="endArrow=none;html=1;rounded=0;" edge="1" parent="1">
          <mxGeometry width="50" height="50" relative="1" as="geometry">
            <mxPoint x="274" y="532" as="sourcePoint" />
            <mxPoint x="274" y="512" as="targetPoint" />
          </mxGeometry>
        </mxCell>
        <mxCell id="pdPbOxNDeSaX1vosYQbB-83" value="" style="endArrow=none;html=1;rounded=0;" edge="1" parent="1">
          <mxGeometry width="50" height="50" relative="1" as="geometry">
            <mxPoint x="284" y="532" as="sourcePoint" />
            <mxPoint x="284" y="512" as="targetPoint" />
          </mxGeometry>
        </mxCell>
        <mxCell id="pdPbOxNDeSaX1vosYQbB-84" value="" style="endArrow=none;html=1;rounded=0;" edge="1" parent="1">
          <mxGeometry width="50" height="50" relative="1" as="geometry">
            <mxPoint x="284" y="532" as="sourcePoint" />
            <mxPoint x="294" y="532" as="targetPoint" />
          </mxGeometry>
        </mxCell>
        <mxCell id="pdPbOxNDeSaX1vosYQbB-85" value="" style="endArrow=none;html=1;rounded=0;" edge="1" parent="1">
          <mxGeometry width="50" height="50" relative="1" as="geometry">
            <mxPoint x="294" y="512" as="sourcePoint" />
            <mxPoint x="304" y="512" as="targetPoint" />
          </mxGeometry>
        </mxCell>
        <mxCell id="pdPbOxNDeSaX1vosYQbB-86" value="" style="endArrow=none;html=1;rounded=0;" edge="1" parent="1">
          <mxGeometry width="50" height="50" relative="1" as="geometry">
            <mxPoint x="294" y="532" as="sourcePoint" />
            <mxPoint x="294" y="512" as="targetPoint" />
          </mxGeometry>
        </mxCell>
        <mxCell id="pdPbOxNDeSaX1vosYQbB-87" value="" style="endArrow=none;html=1;rounded=0;" edge="1" parent="1">
          <mxGeometry width="50" height="50" relative="1" as="geometry">
            <mxPoint x="304" y="532" as="sourcePoint" />
            <mxPoint x="304" y="512" as="targetPoint" />
          </mxGeometry>
        </mxCell>
        <mxCell id="pdPbOxNDeSaX1vosYQbB-88" value="" style="endArrow=none;html=1;rounded=0;" edge="1" parent="1">
          <mxGeometry width="50" height="50" relative="1" as="geometry">
            <mxPoint x="304" y="532" as="sourcePoint" />
            <mxPoint x="314" y="532" as="targetPoint" />
          </mxGeometry>
        </mxCell>
        <mxCell id="pdPbOxNDeSaX1vosYQbB-89" value="" style="endArrow=none;html=1;rounded=0;" edge="1" parent="1">
          <mxGeometry width="50" height="50" relative="1" as="geometry">
            <mxPoint x="314" y="512" as="sourcePoint" />
            <mxPoint x="324" y="512" as="targetPoint" />
          </mxGeometry>
        </mxCell>
        <mxCell id="pdPbOxNDeSaX1vosYQbB-90" value="" style="endArrow=none;html=1;rounded=0;" edge="1" parent="1">
          <mxGeometry width="50" height="50" relative="1" as="geometry">
            <mxPoint x="314" y="532" as="sourcePoint" />
            <mxPoint x="314" y="512" as="targetPoint" />
          </mxGeometry>
        </mxCell>
        <mxCell id="pdPbOxNDeSaX1vosYQbB-91" value="" style="endArrow=none;html=1;rounded=0;" edge="1" parent="1">
          <mxGeometry width="50" height="50" relative="1" as="geometry">
            <mxPoint x="324" y="532" as="sourcePoint" />
            <mxPoint x="324" y="512" as="targetPoint" />
          </mxGeometry>
        </mxCell>
        <mxCell id="pdPbOxNDeSaX1vosYQbB-92" value="" style="endArrow=none;html=1;rounded=0;" edge="1" parent="1">
          <mxGeometry width="50" height="50" relative="1" as="geometry">
            <mxPoint x="324" y="532" as="sourcePoint" />
            <mxPoint x="334" y="532" as="targetPoint" />
          </mxGeometry>
        </mxCell>
        <mxCell id="pdPbOxNDeSaX1vosYQbB-93" value="" style="endArrow=none;html=1;rounded=0;" edge="1" parent="1">
          <mxGeometry width="50" height="50" relative="1" as="geometry">
            <mxPoint x="334" y="512" as="sourcePoint" />
            <mxPoint x="344" y="512" as="targetPoint" />
          </mxGeometry>
        </mxCell>
        <mxCell id="pdPbOxNDeSaX1vosYQbB-94" value="" style="endArrow=none;html=1;rounded=0;" edge="1" parent="1">
          <mxGeometry width="50" height="50" relative="1" as="geometry">
            <mxPoint x="334" y="532" as="sourcePoint" />
            <mxPoint x="334" y="512" as="targetPoint" />
          </mxGeometry>
        </mxCell>
        <mxCell id="pdPbOxNDeSaX1vosYQbB-95" value="" style="endArrow=none;html=1;rounded=0;" edge="1" parent="1">
          <mxGeometry width="50" height="50" relative="1" as="geometry">
            <mxPoint x="344" y="532" as="sourcePoint" />
            <mxPoint x="344" y="512" as="targetPoint" />
          </mxGeometry>
        </mxCell>
        <mxCell id="pdPbOxNDeSaX1vosYQbB-96" value="" style="endArrow=none;html=1;rounded=0;" edge="1" parent="1">
          <mxGeometry width="50" height="50" relative="1" as="geometry">
            <mxPoint x="344" y="532" as="sourcePoint" />
            <mxPoint x="354" y="532" as="targetPoint" />
          </mxGeometry>
        </mxCell>
        <mxCell id="pdPbOxNDeSaX1vosYQbB-97" value="" style="endArrow=none;html=1;rounded=0;" edge="1" parent="1">
          <mxGeometry width="50" height="50" relative="1" as="geometry">
            <mxPoint x="354" y="512" as="sourcePoint" />
            <mxPoint x="364" y="512" as="targetPoint" />
          </mxGeometry>
        </mxCell>
        <mxCell id="pdPbOxNDeSaX1vosYQbB-98" value="" style="endArrow=none;html=1;rounded=0;" edge="1" parent="1">
          <mxGeometry width="50" height="50" relative="1" as="geometry">
            <mxPoint x="354" y="532" as="sourcePoint" />
            <mxPoint x="354" y="512" as="targetPoint" />
          </mxGeometry>
        </mxCell>
        <mxCell id="pdPbOxNDeSaX1vosYQbB-99" value="" style="endArrow=none;html=1;rounded=0;" edge="1" parent="1">
          <mxGeometry width="50" height="50" relative="1" as="geometry">
            <mxPoint x="364" y="532" as="sourcePoint" />
            <mxPoint x="364" y="512" as="targetPoint" />
          </mxGeometry>
        </mxCell>
        <mxCell id="pdPbOxNDeSaX1vosYQbB-100" value="" style="endArrow=none;html=1;rounded=0;" edge="1" parent="1">
          <mxGeometry width="50" height="50" relative="1" as="geometry">
            <mxPoint x="364" y="532" as="sourcePoint" />
            <mxPoint x="374" y="532" as="targetPoint" />
          </mxGeometry>
        </mxCell>
        <mxCell id="pdPbOxNDeSaX1vosYQbB-101" value="" style="endArrow=none;html=1;rounded=0;" edge="1" parent="1">
          <mxGeometry width="50" height="50" relative="1" as="geometry">
            <mxPoint x="374" y="512" as="sourcePoint" />
            <mxPoint x="384" y="512" as="targetPoint" />
          </mxGeometry>
        </mxCell>
        <mxCell id="pdPbOxNDeSaX1vosYQbB-102" value="" style="endArrow=none;html=1;rounded=0;" edge="1" parent="1">
          <mxGeometry width="50" height="50" relative="1" as="geometry">
            <mxPoint x="374" y="532" as="sourcePoint" />
            <mxPoint x="374" y="512" as="targetPoint" />
          </mxGeometry>
        </mxCell>
        <mxCell id="pdPbOxNDeSaX1vosYQbB-103" value="" style="endArrow=none;html=1;rounded=0;" edge="1" parent="1">
          <mxGeometry width="50" height="50" relative="1" as="geometry">
            <mxPoint x="384" y="532" as="sourcePoint" />
            <mxPoint x="384" y="512" as="targetPoint" />
          </mxGeometry>
        </mxCell>
        <mxCell id="pdPbOxNDeSaX1vosYQbB-104" value="" style="endArrow=none;html=1;rounded=0;" edge="1" parent="1">
          <mxGeometry width="50" height="50" relative="1" as="geometry">
            <mxPoint x="384" y="532" as="sourcePoint" />
            <mxPoint x="394" y="532" as="targetPoint" />
          </mxGeometry>
        </mxCell>
        <mxCell id="pdPbOxNDeSaX1vosYQbB-105" value="" style="endArrow=none;html=1;rounded=0;" edge="1" parent="1">
          <mxGeometry width="50" height="50" relative="1" as="geometry">
            <mxPoint x="394" y="512" as="sourcePoint" />
            <mxPoint x="404" y="512" as="targetPoint" />
          </mxGeometry>
        </mxCell>
        <mxCell id="pdPbOxNDeSaX1vosYQbB-106" value="" style="endArrow=none;html=1;rounded=0;" edge="1" parent="1">
          <mxGeometry width="50" height="50" relative="1" as="geometry">
            <mxPoint x="394" y="532" as="sourcePoint" />
            <mxPoint x="394" y="512" as="targetPoint" />
          </mxGeometry>
        </mxCell>
        <mxCell id="pdPbOxNDeSaX1vosYQbB-107" value="" style="endArrow=none;html=1;rounded=0;" edge="1" parent="1">
          <mxGeometry width="50" height="50" relative="1" as="geometry">
            <mxPoint x="404" y="532" as="sourcePoint" />
            <mxPoint x="404" y="512" as="targetPoint" />
          </mxGeometry>
        </mxCell>
        <mxCell id="pdPbOxNDeSaX1vosYQbB-108" value="" style="endArrow=none;html=1;rounded=0;" edge="1" parent="1">
          <mxGeometry width="50" height="50" relative="1" as="geometry">
            <mxPoint x="404" y="532" as="sourcePoint" />
            <mxPoint x="414" y="532" as="targetPoint" />
          </mxGeometry>
        </mxCell>
        <mxCell id="pdPbOxNDeSaX1vosYQbB-109" value="" style="endArrow=none;dashed=1;html=1;rounded=0;" edge="1" parent="1">
          <mxGeometry width="50" height="50" relative="1" as="geometry">
            <mxPoint x="329" y="552" as="sourcePoint" />
            <mxPoint x="329" y="492" as="targetPoint" />
          </mxGeometry>
        </mxCell>
        <mxCell id="pdPbOxNDeSaX1vosYQbB-110" value="" style="endArrow=none;dashed=1;html=1;rounded=0;" edge="1" parent="1">
          <mxGeometry width="50" height="50" relative="1" as="geometry">
            <mxPoint x="309" y="552" as="sourcePoint" />
            <mxPoint x="309" y="492" as="targetPoint" />
          </mxGeometry>
        </mxCell>
        <mxCell id="pdPbOxNDeSaX1vosYQbB-111" value="&lt;div&gt;4 Bits&lt;br&gt;&lt;/div&gt;&lt;div&gt;Checksum&lt;/div&gt;" style="text;html=1;align=center;verticalAlign=middle;resizable=0;points=[];autosize=1;strokeColor=none;fillColor=none;" vertex="1" parent="1">
          <mxGeometry x="334" y="475" width="70" height="40" as="geometry" />
        </mxCell>
        <mxCell id="pdPbOxNDeSaX1vosYQbB-112" value="11 Bits&lt;br&gt;&lt;div&gt;Command / Throttle&lt;/div&gt;" style="text;html=1;align=center;verticalAlign=middle;resizable=0;points=[];autosize=1;strokeColor=none;fillColor=none;" vertex="1" parent="1">
          <mxGeometry x="134" y="472" width="120" height="40" as="geometry" />
        </mxCell>
        <mxCell id="pdPbOxNDeSaX1vosYQbB-113" value="&lt;div&gt;1 Bit&lt;br&gt;&lt;/div&gt;&lt;div&gt;Telemetry&lt;/div&gt;&lt;div&gt;Request&lt;br&gt;&lt;/div&gt;" style="text;html=1;align=center;verticalAlign=middle;resizable=0;points=[];autosize=1;strokeColor=none;fillColor=none;" vertex="1" parent="1">
          <mxGeometry x="284" y="440" width="70" height="60" as="geometry" />
        </mxCell>
        <mxCell id="pdPbOxNDeSaX1vosYQbB-116" value="1:" style="text;html=1;align=center;verticalAlign=middle;resizable=0;points=[];autosize=1;strokeColor=none;fillColor=none;" vertex="1" parent="1">
          <mxGeometry x="54" y="325" width="30" height="30" as="geometry" />
        </mxCell>
        <mxCell id="pdPbOxNDeSaX1vosYQbB-117" value="0:" style="text;html=1;align=center;verticalAlign=middle;resizable=0;points=[];autosize=1;strokeColor=none;fillColor=none;" vertex="1" parent="1">
          <mxGeometry x="54" y="374" width="30" height="30" as="geometry" />
        </mxCell>
      </root>
    </mxGraphModel>
  </diagram>
</mxfile>
